# xmcd CD database file
#
# Track frame offsets:
#	150
#	30893
#	76405
#	137228
#	177678
#	212183
#
# Disc length: 3505 seconds
#
# Revision: 0
# Processed by: cddbd v1.5.2PL0 Copyright (c) Steve Scherf et al.
# Submitted via: CDex 1.51
#
DISCID=4f0daf06
DTITLE=SONNY ROLLING - SONNY ROLLING PERFECT COLLECTION
DYEAR=1900
DGENRE=Jazz
TTITLE0=St.Thomas
TTITLE1=Moritat
TTITLE2=What is this thing called love
TTITLE3=L'll remember april
TTITLE4=Softly as in a morning sunrise
TTITLE5=Blue seven
EXTD=
EXTT0=
EXTT1=
EXTT2=
EXTT3=
EXTT4=
EXTT5=
PLAYORDER=
